<mxfile host="Electron" modified="2023-06-05T13:31:41.719Z" agent="Mozilla/5.0 (Windows NT 10.0; Win64; x64) AppleWebKit/537.36 (KHTML, like Gecko) draw.io/21.2.8 Chrome/112.0.5615.165 Electron/24.2.0 Safari/537.36" etag="xvfAB2mfYZNfLyoKhURE" version="21.2.8" type="device">
  <diagram name="Page-1" id="a-3-_C2tZx6P-EYiNx11">
    <mxGraphModel dx="1080" dy="645" grid="1" gridSize="10" guides="1" tooltips="1" connect="1" arrows="1" fold="1" page="1" pageScale="1" pageWidth="850" pageHeight="1100" math="0" shadow="0">
      <root>
        <mxCell id="0" />
        <mxCell id="1" parent="0" />
        <mxCell id="ef-zQDQExmq2DMCoScai-1" value="Recipient" style="shape=umlActor;verticalLabelPosition=bottom;verticalAlign=top;html=1;outlineConnect=0;" vertex="1" parent="1">
          <mxGeometry x="101" y="40" width="50" height="100" as="geometry" />
        </mxCell>
        <mxCell id="ef-zQDQExmq2DMCoScai-7" value="Recipient" style="shape=umlActor;verticalLabelPosition=bottom;verticalAlign=top;html=1;outlineConnect=0;" vertex="1" parent="1">
          <mxGeometry x="640" y="40" width="50" height="100" as="geometry" />
        </mxCell>
        <mxCell id="ef-zQDQExmq2DMCoScai-2" value="Sender" style="shape=umlActor;verticalLabelPosition=bottom;verticalAlign=top;html=1;outlineConnect=0;" vertex="1" parent="1">
          <mxGeometry x="191" y="40" width="50" height="100" as="geometry" />
        </mxCell>
        <mxCell id="ef-zQDQExmq2DMCoScai-8" value="Sender" style="shape=umlActor;verticalLabelPosition=bottom;verticalAlign=top;html=1;outlineConnect=0;" vertex="1" parent="1">
          <mxGeometry x="730" y="40" width="50" height="100" as="geometry" />
        </mxCell>
        <mxCell id="ef-zQDQExmq2DMCoScai-9" value="" style="whiteSpace=wrap;html=1;aspect=fixed;dashed=1;fillColor=#e1d5e7;strokeColor=#9673a6;" vertex="1" parent="1">
          <mxGeometry x="60" y="240" width="220" height="220" as="geometry" />
        </mxCell>
        <mxCell id="ef-zQDQExmq2DMCoScai-10" value="" style="whiteSpace=wrap;html=1;aspect=fixed;dashed=1;fillColor=#e1d5e7;strokeColor=#9673a6;" vertex="1" parent="1">
          <mxGeometry x="600" y="240" width="220" height="220" as="geometry" />
        </mxCell>
        <mxCell id="ef-zQDQExmq2DMCoScai-28" style="edgeStyle=orthogonalEdgeStyle;rounded=0;orthogonalLoop=1;jettySize=auto;html=1;entryX=0.356;entryY=1.013;entryDx=0;entryDy=0;entryPerimeter=0;exitX=1;exitY=0.295;exitDx=0;exitDy=0;exitPerimeter=0;fontStyle=1" edge="1" parent="1" source="ef-zQDQExmq2DMCoScai-11" target="ef-zQDQExmq2DMCoScai-18">
          <mxGeometry relative="1" as="geometry" />
        </mxCell>
        <mxCell id="ef-zQDQExmq2DMCoScai-29" value="2. Listen deposit" style="edgeLabel;html=1;align=center;verticalAlign=middle;resizable=0;points=[];" vertex="1" connectable="0" parent="ef-zQDQExmq2DMCoScai-28">
          <mxGeometry x="-0.2394" y="-1" relative="1" as="geometry">
            <mxPoint x="9" as="offset" />
          </mxGeometry>
        </mxCell>
        <mxCell id="ef-zQDQExmq2DMCoScai-11" value="&lt;b&gt;Bridge Contract&lt;/b&gt;" style="whiteSpace=wrap;html=1;aspect=fixed;" vertex="1" parent="1">
          <mxGeometry x="92.5" y="272.5" width="155" height="155" as="geometry" />
        </mxCell>
        <mxCell id="ef-zQDQExmq2DMCoScai-12" value="&lt;b&gt;&lt;font face=&quot;Tahoma&quot; style=&quot;font-size: 17px;&quot;&gt;Ethereum&lt;/font&gt;&lt;/b&gt;" style="text;html=1;align=center;verticalAlign=middle;resizable=0;points=[];autosize=1;strokeColor=none;fillColor=none;" vertex="1" parent="1">
          <mxGeometry x="115" y="460" width="110" height="30" as="geometry" />
        </mxCell>
        <mxCell id="ef-zQDQExmq2DMCoScai-32" style="edgeStyle=orthogonalEdgeStyle;rounded=0;orthogonalLoop=1;jettySize=auto;html=1;" edge="1" parent="1">
          <mxGeometry relative="1" as="geometry">
            <mxPoint x="665" y="163" as="targetPoint" />
            <mxPoint x="665" y="270" as="sourcePoint" />
          </mxGeometry>
        </mxCell>
        <mxCell id="ef-zQDQExmq2DMCoScai-34" value="4. Token" style="edgeLabel;html=1;align=center;verticalAlign=middle;resizable=0;points=[];" vertex="1" connectable="0" parent="ef-zQDQExmq2DMCoScai-32">
          <mxGeometry x="0.2557" relative="1" as="geometry">
            <mxPoint as="offset" />
          </mxGeometry>
        </mxCell>
        <mxCell id="ef-zQDQExmq2DMCoScai-13" value="&lt;b&gt;Bridge&lt;br&gt;&amp;nbsp;Contract&lt;/b&gt;" style="whiteSpace=wrap;html=1;aspect=fixed;" vertex="1" parent="1">
          <mxGeometry x="632.5" y="272.5" width="155" height="155" as="geometry" />
        </mxCell>
        <mxCell id="ef-zQDQExmq2DMCoScai-17" value="&lt;b&gt;&lt;font face=&quot;Tahoma&quot; style=&quot;font-size: 17px;&quot;&gt;Binance Smartchain&lt;/font&gt;&lt;/b&gt;" style="text;html=1;align=center;verticalAlign=middle;resizable=0;points=[];autosize=1;strokeColor=none;fillColor=none;" vertex="1" parent="1">
          <mxGeometry x="615" y="460" width="190" height="30" as="geometry" />
        </mxCell>
        <mxCell id="ef-zQDQExmq2DMCoScai-30" style="edgeStyle=orthogonalEdgeStyle;rounded=0;orthogonalLoop=1;jettySize=auto;html=1;entryX=-0.019;entryY=0.313;entryDx=0;entryDy=0;entryPerimeter=0;exitX=0.368;exitY=0.014;exitDx=0;exitDy=0;exitPerimeter=0;" edge="1" parent="1" source="ef-zQDQExmq2DMCoScai-18" target="ef-zQDQExmq2DMCoScai-13">
          <mxGeometry relative="1" as="geometry" />
        </mxCell>
        <mxCell id="ef-zQDQExmq2DMCoScai-31" value="3. mint" style="edgeLabel;html=1;align=center;verticalAlign=middle;resizable=0;points=[];" vertex="1" connectable="0" parent="ef-zQDQExmq2DMCoScai-30">
          <mxGeometry x="-0.1783" y="1" relative="1" as="geometry">
            <mxPoint as="offset" />
          </mxGeometry>
        </mxCell>
        <mxCell id="ef-zQDQExmq2DMCoScai-40" style="edgeStyle=orthogonalEdgeStyle;rounded=0;orthogonalLoop=1;jettySize=auto;html=1;entryX=0.994;entryY=0.824;entryDx=0;entryDy=0;entryPerimeter=0;exitX=0.732;exitY=1.027;exitDx=0;exitDy=0;exitPerimeter=0;" edge="1" parent="1" source="ef-zQDQExmq2DMCoScai-18" target="ef-zQDQExmq2DMCoScai-11">
          <mxGeometry relative="1" as="geometry" />
        </mxCell>
        <mxCell id="ef-zQDQExmq2DMCoScai-41" value="3. mint" style="edgeLabel;html=1;align=center;verticalAlign=middle;resizable=0;points=[];" vertex="1" connectable="0" parent="ef-zQDQExmq2DMCoScai-40">
          <mxGeometry x="-0.2831" y="1" relative="1" as="geometry">
            <mxPoint as="offset" />
          </mxGeometry>
        </mxCell>
        <mxCell id="ef-zQDQExmq2DMCoScai-18" value="&lt;b&gt;Bridge API&lt;/b&gt;" style="rounded=0;whiteSpace=wrap;html=1;direction=south;" vertex="1" parent="1">
          <mxGeometry x="390" y="240" width="100" height="220" as="geometry" />
        </mxCell>
        <mxCell id="ef-zQDQExmq2DMCoScai-20" style="edgeStyle=orthogonalEdgeStyle;rounded=0;orthogonalLoop=1;jettySize=auto;html=1;entryX=0.797;entryY=0;entryDx=0;entryDy=0;entryPerimeter=0;" edge="1" parent="1" target="ef-zQDQExmq2DMCoScai-11">
          <mxGeometry relative="1" as="geometry">
            <mxPoint x="216" y="170" as="sourcePoint" />
          </mxGeometry>
        </mxCell>
        <mxCell id="ef-zQDQExmq2DMCoScai-21" value="1. Burn Token" style="edgeLabel;html=1;align=center;verticalAlign=middle;resizable=0;points=[];" vertex="1" connectable="0" parent="ef-zQDQExmq2DMCoScai-20">
          <mxGeometry x="-0.2347" y="2" relative="1" as="geometry">
            <mxPoint x="-2" y="13" as="offset" />
          </mxGeometry>
        </mxCell>
        <mxCell id="ef-zQDQExmq2DMCoScai-25" style="edgeStyle=orthogonalEdgeStyle;rounded=0;orthogonalLoop=1;jettySize=auto;html=1;exitX=0.214;exitY=0;exitDx=0;exitDy=0;exitPerimeter=0;" edge="1" parent="1" source="ef-zQDQExmq2DMCoScai-11">
          <mxGeometry relative="1" as="geometry">
            <mxPoint x="126" y="160" as="targetPoint" />
            <mxPoint x="174.95652173913038" y="233" as="sourcePoint" />
            <Array as="points" />
          </mxGeometry>
        </mxCell>
        <mxCell id="ef-zQDQExmq2DMCoScai-26" value="4. Token" style="edgeLabel;html=1;align=center;verticalAlign=middle;resizable=0;points=[];" vertex="1" connectable="0" parent="ef-zQDQExmq2DMCoScai-25">
          <mxGeometry x="-0.0792" y="-1" relative="1" as="geometry">
            <mxPoint as="offset" />
          </mxGeometry>
        </mxCell>
        <mxCell id="ef-zQDQExmq2DMCoScai-27" value="" style="endArrow=none;dashed=1;html=1;rounded=0;entryX=0.798;entryY=0.005;entryDx=0;entryDy=0;entryPerimeter=0;exitX=0.996;exitY=0.291;exitDx=0;exitDy=0;exitPerimeter=0;" edge="1" parent="1" source="ef-zQDQExmq2DMCoScai-11" target="ef-zQDQExmq2DMCoScai-11">
          <mxGeometry width="50" height="50" relative="1" as="geometry">
            <mxPoint x="300" y="350" as="sourcePoint" />
            <mxPoint x="350" y="300" as="targetPoint" />
          </mxGeometry>
        </mxCell>
        <mxCell id="ef-zQDQExmq2DMCoScai-33" value="" style="endArrow=none;dashed=1;html=1;rounded=0;entryX=0.206;entryY=-0.003;entryDx=0;entryDy=0;entryPerimeter=0;exitX=-0.004;exitY=0.313;exitDx=0;exitDy=0;exitPerimeter=0;" edge="1" parent="1" source="ef-zQDQExmq2DMCoScai-13" target="ef-zQDQExmq2DMCoScai-13">
          <mxGeometry width="50" height="50" relative="1" as="geometry">
            <mxPoint x="560" y="250" as="sourcePoint" />
            <mxPoint x="610" y="200" as="targetPoint" />
          </mxGeometry>
        </mxCell>
        <mxCell id="ef-zQDQExmq2DMCoScai-35" style="edgeStyle=orthogonalEdgeStyle;rounded=0;orthogonalLoop=1;jettySize=auto;html=1;" edge="1" parent="1">
          <mxGeometry relative="1" as="geometry">
            <mxPoint x="754" y="160" as="sourcePoint" />
            <mxPoint x="754" y="270" as="targetPoint" />
            <Array as="points">
              <mxPoint x="754" y="160" />
            </Array>
          </mxGeometry>
        </mxCell>
        <mxCell id="ef-zQDQExmq2DMCoScai-36" value="1. Burn token" style="edgeLabel;html=1;align=center;verticalAlign=middle;resizable=0;points=[];" vertex="1" connectable="0" parent="ef-zQDQExmq2DMCoScai-35">
          <mxGeometry x="-0.2503" y="1" relative="1" as="geometry">
            <mxPoint as="offset" />
          </mxGeometry>
        </mxCell>
        <mxCell id="ef-zQDQExmq2DMCoScai-37" style="edgeStyle=orthogonalEdgeStyle;rounded=0;orthogonalLoop=1;jettySize=auto;html=1;entryX=0.727;entryY=-0.037;entryDx=0;entryDy=0;entryPerimeter=0;exitX=0.003;exitY=0.831;exitDx=0;exitDy=0;exitPerimeter=0;" edge="1" parent="1" source="ef-zQDQExmq2DMCoScai-13" target="ef-zQDQExmq2DMCoScai-18">
          <mxGeometry relative="1" as="geometry" />
        </mxCell>
        <mxCell id="ef-zQDQExmq2DMCoScai-38" value="2. Listen deposit" style="edgeLabel;html=1;align=center;verticalAlign=middle;resizable=0;points=[];" vertex="1" connectable="0" parent="ef-zQDQExmq2DMCoScai-37">
          <mxGeometry x="0.2504" y="3" relative="1" as="geometry">
            <mxPoint x="17" as="offset" />
          </mxGeometry>
        </mxCell>
        <mxCell id="ef-zQDQExmq2DMCoScai-39" value="" style="endArrow=none;dashed=1;html=1;rounded=0;entryX=0.786;entryY=0.016;entryDx=0;entryDy=0;entryPerimeter=0;exitX=0.012;exitY=0.835;exitDx=0;exitDy=0;exitPerimeter=0;" edge="1" parent="1" source="ef-zQDQExmq2DMCoScai-13" target="ef-zQDQExmq2DMCoScai-13">
          <mxGeometry width="50" height="50" relative="1" as="geometry">
            <mxPoint x="530" y="480" as="sourcePoint" />
            <mxPoint x="580" y="430" as="targetPoint" />
          </mxGeometry>
        </mxCell>
        <mxCell id="ef-zQDQExmq2DMCoScai-42" value="" style="endArrow=none;dashed=1;html=1;rounded=0;entryX=0.212;entryY=0.007;entryDx=0;entryDy=0;entryPerimeter=0;exitX=0.995;exitY=0.831;exitDx=0;exitDy=0;exitPerimeter=0;" edge="1" parent="1" source="ef-zQDQExmq2DMCoScai-11" target="ef-zQDQExmq2DMCoScai-11">
          <mxGeometry width="50" height="50" relative="1" as="geometry">
            <mxPoint x="240" y="290" as="sourcePoint" />
            <mxPoint x="290" y="240" as="targetPoint" />
          </mxGeometry>
        </mxCell>
      </root>
    </mxGraphModel>
  </diagram>
</mxfile>
